<?xml version='1.0' encoding='utf-8'?>
<svg xmlns="http://www.w3.org/2000/svg" viewBox="0 0 1000 1000">
  <g transform="translate(500.0,500.0) rotate(90) translate(-500.0,-500.0)"><g transform="translate(500.0,500.0) rotate(270) translate(-500.0,-500.0)"><g transform="translate(500.0,500.0) rotate(180) translate(-500.0,-500.0)"><g transform="translate(500.0,500.0) rotate(90) translate(-500.0,-500.0)"><g transform="translate(500.0,500.0) rotate(270) translate(-500.0,-500.0)"><g transform="translate(500.0,500.0) rotate(180) translate(-500.0,-500.0)"><g transform="translate(500.0,500.0) rotate(90) translate(-500.0,-500.0)"><g transform="rotate(180 500 500)">
    <rect width="1000" height="1000" fill="#fff" />
    <line x1="200" y1="200" x2="800" y2="200" stroke="#000" stroke-width="60" stroke-linecap="square" />
    <line x1="200" y1="200" x2="200" y2="800" stroke="#000" stroke-width="60" stroke-linecap="square" />
    <line x1="800" y1="200" x2="800" y2="800" stroke="#000" stroke-width="60" stroke-linecap="square" />
    <line x1="200" y1="800" x2="0" y2="800" stroke="#000" stroke-width="60" stroke-linecap="square" />
    <line x1="800" y1="800" x2="1000" y2="800" stroke="#000" stroke-width="60" stroke-linecap="square" />
    <line x1="200" y1="700" x2="0" y2="700" stroke="#000" stroke-width="60" stroke-linecap="square" />
    <line x1="800" y1="700" x2="1000" y2="700" stroke="#000" stroke-width="60" stroke-linecap="square" />
    <line x1="200" y1="600" x2="0" y2="600" stroke="#000" stroke-width="60" stroke-linecap="square" />
    <line x1="800" y1="600" x2="1000" y2="600" stroke="#000" stroke-width="60" stroke-linecap="square" />
    <line x1="200" y1="500" x2="0" y2="500" stroke="#000" stroke-width="60" stroke-linecap="square" />
    <line x1="800" y1="500" x2="1000" y2="500" stroke="#000" stroke-width="60" stroke-linecap="square" />
  </g>
</g></g></g></g></g></g></g></svg>